<svg width="375" height="375" fill="none" xmlns="http://www.w3.org/2000/svg">
  <g clip-path="url(#a)">
    <path fill="#EDF2F2" style="fill:color(display-p3 .9294 .949 .949);fill-opacity:1" d="M0 0h375v375H0z"/>
    <path d="M271.788 164.223c0-59.59-44.82-89.629-84.276-89.629h-.024c-39.456 0-84.276 30.039-84.276 89.629 0 6 .335 12.015 1.058 17.962 1.692 27.748 13.914 44.443 23.034 56.902 5.669 7.744 10.14 13.851 10.14 19.958 0 10.367-20.039 20.734-43.517 32.88-33.202 17.176-73.28 37.91-73.28 67.232 0 50.056 41.713 50.056 66.741 50.056h200.224c25.028 0 66.741 0 66.741-50.056 0-29.322-40.078-50.056-73.281-67.232-23.477-12.146-43.516-22.513-43.516-32.88 0-6.107 4.471-12.214 10.139-19.958 9.121-12.459 21.343-29.154 23.034-56.902.723-5.947 1.059-11.962 1.059-17.962Z" fill="#B6BEBF" style="fill:color(display-p3 .7137 .7451 .749);fill-opacity:1"/>
  </g>
  <defs>
    <clipPath id="a">
      <path fill="#fff" style="fill:#fff;fill-opacity:1" d="M0 0h375v375H0z"/>
    </clipPath>
  </defs>
</svg>
